# xmcd
#
# Track frame offsets:
#	150
#	14926
#	30940
#	44254
#	59217
#	75718
#	89744
#	104932
#	118657
#	132195
#	147121
#	161522
#	177086
#	191299
#	206750
#	220927
#	233603
#	247966
#	260529
#	275341
#	289442
#
# Disc length: 4090 seconds
#
# Revision: 1
# Processed by: cddbd v1.5.2PL0 Copyright (c) Steve Scherf et al.
# Submitted via: EZCDAudioConverter 2.3.5.1
#
DISCID=400ff815
DTITLE=김혜연 - Best Of the Best
DYEAR=2013
DGENRE=
TTITLE0=최고다 당신
TTITLE1=사르르
TTITLE2=광주 광주
TTITLE3=한방이야
TTITLE4=마지막은 나와함께
TTITLE5=소문난 사랑
TTITLE6=토요일 밤에
TTITLE7=뱀이다
TTITLE8=님아
TTITLE9=어쩌나
TTITLE10=화난여자
TTITLE11=예쁜여우
TTITLE12=유일한 사람
TTITLE13=유리구두
TTITLE14=그대를 사랑해
TTITLE15=바보같은 여자
TTITLE16=서울대전대구부산
TTITLE17=서울평양반나절
TTITLE18=더 늦기 전에
TTITLE19=간큰남자
TTITLE20=아버지
EXTD=
EXTT0=
EXTT1=
EXTT2=
EXTT3=
EXTT4=
EXTT5=
EXTT6=
EXTT7=
EXTT8=
EXTT9=
EXTT10=
EXTT11=
EXTT12=
EXTT13=
EXTT14=
EXTT15=
EXTT16=
EXTT17=
EXTT18=
EXTT19=
EXTT20=
PLAYORDER=
